<svg xmlns="http://www.w3.org/2000/svg" viewBox="0 0 100 140">
  <!-- Фон карты -->
  <rect x="0" y="0" width="100" height="140" rx="8" fill="#8bc34a"/>
  <!-- Внутренняя рамка -->
  <rect x="5" y="5" width="90" height="130" rx="6" fill="#9ccc65"/>
  <!-- Центральный элемент (дверь) -->
  <rect x="20" y="25" width="60" height="90" rx="4" fill="#4169e1"/>
  <rect x="25" y="30" width="50" height="80" rx="2" fill="#5178e8"/>
  <!-- Металлические уголки -->
  <path d="M20 25 L35 25 L35 40 L20 40 Z" fill="#555"/>
  <path d="M80 25 L65 25 L65 40 L80 40 Z" fill="#555"/>
  <path d="M20 115 L35 115 L35 100 L20 100 Z" fill="#555"/>
  <path d="M80 115 L65 115 L65 100 L80 100 Z" fill="#555"/>
  <!-- Заклёпки -->
  <circle cx="27" cy="32" r="3" fill="#888"/>
  <circle cx="73" cy="32" r="3" fill="#888"/>
  <circle cx="27" cy="108" r="3" fill="#888"/>
  <circle cx="73" cy="108" r="3" fill="#888"/>
  <!-- Центральный круг -->
  <circle cx="50" cy="70" r="18" fill="#555"/>
  <circle cx="50" cy="70" r="15" fill="#2e7d32"/>
  <circle cx="50" cy="70" r="12" fill="#4caf50"/>
  <!-- Блик -->
  <ellipse cx="45" cy="65" rx="5" ry="4" fill="#81c784" opacity="0.6"/>
  <!-- Пузырьки -->
  <circle cx="55" cy="73" r="2" fill="#a5d6a7" opacity="0.5"/>
  <circle cx="48" cy="76" r="1.5" fill="#a5d6a7" opacity="0.5"/>
</svg>
