<svg xmlns="http://www.w3.org/2000/svg" viewBox="0 0 100 100">
  <!-- Небо -->
  <rect x="0" y="0" width="100" height="60" fill="#87ceeb"/>
  <!-- Облака -->
  <ellipse cx="75" cy="20" rx="15" ry="8" fill="white"/>
  <ellipse cx="85" cy="22" rx="10" ry="6" fill="white"/>
  <ellipse cx="68" cy="25" rx="8" ry="5" fill="white"/>
  <ellipse cx="25" cy="30" rx="12" ry="6" fill="white"/>
  <ellipse cx="35" cy="28" rx="8" ry="5" fill="white"/>
  <!-- Холм -->
  <ellipse cx="50" cy="95" rx="55" ry="40" fill="#4caf50"/>
  <ellipse cx="50" cy="90" rx="50" ry="35" fill="#66bb6a"/>
  <!-- Трава на холме -->
  <path d="M30 75 L32 70 L34 75" stroke="#2e7d32" stroke-width="1.5" fill="none"/>
  <path d="M40 78 L42 72 L44 78" stroke="#2e7d32" stroke-width="1.5" fill="none"/>
  <path d="M55 76 L57 71 L59 76" stroke="#2e7d32" stroke-width="1.5" fill="none"/>
  <path d="M65 80 L67 74 L69 80" stroke="#2e7d32" stroke-width="1.5" fill="none"/>
  <!-- Флаг на вершине -->
  <rect x="48" y="30" width="3" height="45" fill="#8b4513"/>
  <!-- Навершие -->
  <path d="M49.5 25 L52 30 L47 30 Z" fill="#ffd700"/>
  <!-- Флажок -->
  <path d="M51 32 Q65 38 51 48 Z" fill="#ff5722"/>
  <!-- Ленточка на флаге -->
  <path d="M51 48 Q60 52 55 58 Q58 55 65 58" fill="none" stroke="#ff5722" stroke-width="2"/>
  <!-- Печенька у подножия (маленькая) -->
  <g transform="translate(25, 72) scale(0.4)">
    <circle cx="0" cy="0" r="15" fill="#daa520"/>
    <circle cx="-5" cy="-3" r="2" fill="#5c4033"/>
    <circle cx="5" cy="-5" r="2" fill="#5c4033"/>
    <circle cx="0" cy="5" r="2" fill="#5c4033"/>
  </g>
  <!-- Камень -->
  <ellipse cx="70" cy="85" rx="10" ry="7" fill="#696969"/>
  <ellipse cx="68" cy="83" rx="6" ry="4" fill="#808080"/>
</svg>
