<svg xmlns="http://www.w3.org/2000/svg" viewBox="0 0 100 100">
  <!-- Свиток/пергамент -->
  <path d="M20 15 Q15 15 15 25 L15 80 Q15 90 25 90 L75 90 Q85 90 85 80 L85 25 Q85 15 75 15 Z" fill="#f5deb3"/>
  <!-- Верхний завиток -->
  <ellipse cx="20" cy="15" rx="8" ry="5" fill="#deb887"/>
  <ellipse cx="80" cy="15" rx="8" ry="5" fill="#deb887"/>
  <rect x="20" y="12" width="60" height="6" fill="#f5deb3"/>
  <!-- Нижний завиток -->
  <ellipse cx="20" cy="90" rx="8" ry="5" fill="#deb887"/>
  <ellipse cx="80" cy="90" rx="8" ry="5" fill="#deb887"/>
  <rect x="20" y="87" width="60" height="6" fill="#f5deb3"/>
  <!-- Тень свитка -->
  <path d="M15 25 Q12 25 12 30 L12 75 Q12 80 15 80" fill="#d4a574" opacity="0.5"/>
  <!-- Текстовые линии -->
  <line x1="25" y1="30" x2="75" y2="30" stroke="#8b7355" stroke-width="2" opacity="0.5"/>
  <line x1="25" y1="40" x2="70" y2="40" stroke="#8b7355" stroke-width="2" opacity="0.5"/>
  <line x1="25" y1="50" x2="75" y2="50" stroke="#8b7355" stroke-width="2" opacity="0.5"/>
  <line x1="25" y1="60" x2="65" y2="60" stroke="#8b7355" stroke-width="2" opacity="0.5"/>
  <line x1="25" y1="70" x2="72" y2="70" stroke="#8b7355" stroke-width="2" opacity="0.5"/>
  <line x1="25" y1="80" x2="55" y2="80" stroke="#8b7355" stroke-width="2" opacity="0.5"/>
  <!-- Вопросительный знак -->
  <text x="50" y="62" font-family="Georgia, serif" font-size="35" font-weight="bold" text-anchor="middle" fill="#5c4033" opacity="0.3">?</text>
</svg>
