<svg xmlns="http://www.w3.org/2000/svg" viewBox="0 0 100 100">
  <!-- Основное тело - голубая слизь/клякса -->
  <ellipse cx="50" cy="55" rx="35" ry="28" fill="#4fc3f7"/>
  <!-- Выпуклости сверху -->
  <circle cx="35" cy="35" r="15" fill="#4fc3f7"/>
  <circle cx="55" cy="30" r="18" fill="#4fc3f7"/>
  <circle cx="70" cy="40" r="12" fill="#4fc3f7"/>
  <!-- Капельки снизу -->
  <ellipse cx="25" cy="75" rx="8" ry="10" fill="#4fc3f7"/>
  <ellipse cx="45" cy="80" rx="6" ry="8" fill="#4fc3f7"/>
  <ellipse cx="65" cy="78" rx="7" ry="9" fill="#4fc3f7"/>
  <ellipse cx="80" cy="72" rx="5" ry="7" fill="#4fc3f7"/>
  <!-- Блики -->
  <ellipse cx="40" cy="45" rx="12" ry="8" fill="#81d4fa" opacity="0.6"/>
  <circle cx="35" cy="32" r="6" fill="#b3e5fc" opacity="0.7"/>
  <!-- Глаза -->
  <ellipse cx="40" cy="50" rx="8" ry="10" fill="white"/>
  <ellipse cx="60" cy="48" rx="8" ry="10" fill="white"/>
  <circle cx="42" cy="52" r="4" fill="#222"/>
  <circle cx="62" cy="50" r="4" fill="#222"/>
  <circle cx="43" cy="50" r="1.5" fill="white"/>
  <circle cx="63" cy="48" r="1.5" fill="white"/>
  <!-- Улыбка -->
  <path d="M42 62 Q50 70 58 62" stroke="#0288d1" stroke-width="3" fill="none" stroke-linecap="round"/>
  <!-- Маленькие капельки вокруг -->
  <circle cx="15" cy="60" r="3" fill="#4fc3f7" opacity="0.7"/>
  <circle cx="88" cy="55" r="4" fill="#4fc3f7" opacity="0.7"/>
  <circle cx="20" cy="45" r="2" fill="#4fc3f7" opacity="0.6"/>
</svg>
