<svg xmlns="http://www.w3.org/2000/svg" viewBox="0 0 100 100">
  <!-- Плащ -->
  <path d="M25 45 Q20 50 22 75 Q25 85 30 90 L35 88 Q32 70 35 50 Z" fill="#c41e3a"/>
  <path d="M75 45 Q80 50 78 75 Q75 85 70 90 L65 88 Q68 70 65 50 Z" fill="#c41e3a"/>
  <!-- Тело печеньки (круглое с рифленым краем) -->
  <circle cx="50" cy="50" r="28" fill="#daa520"/>
  <circle cx="50" cy="50" r="26" fill="#e8b846"/>
  <!-- Рифленый край -->
  <circle cx="28" cy="45" r="4" fill="#daa520"/>
  <circle cx="30" cy="35" r="4" fill="#daa520"/>
  <circle cx="38" cy="28" r="4" fill="#daa520"/>
  <circle cx="50" cy="24" r="4" fill="#daa520"/>
  <circle cx="62" cy="28" r="4" fill="#daa520"/>
  <circle cx="70" cy="35" r="4" fill="#daa520"/>
  <circle cx="72" cy="45" r="4" fill="#daa520"/>
  <circle cx="72" cy="55" r="4" fill="#daa520"/>
  <circle cx="70" cy="65" r="4" fill="#daa520"/>
  <circle cx="62" cy="72" r="4" fill="#daa520"/>
  <circle cx="50" cy="76" r="4" fill="#daa520"/>
  <circle cx="38" cy="72" r="4" fill="#daa520"/>
  <circle cx="30" cy="65" r="4" fill="#daa520"/>
  <circle cx="28" cy="55" r="4" fill="#daa520"/>
  <!-- Повязка на глаза -->
  <rect x="30" y="43" width="40" height="12" rx="2" fill="#c41e3a"/>
  <path d="M70 49 Q80 49 85 45 L87 47 Q82 52 70 52 Z" fill="#c41e3a"/>
  <!-- Глаза через повязку -->
  <ellipse cx="40" cy="49" rx="5" ry="4" fill="white"/>
  <ellipse cx="60" cy="49" rx="5" ry="4" fill="white"/>
  <circle cx="41" cy="49" r="2.5" fill="#222"/>
  <circle cx="61" cy="49" r="2.5" fill="#222"/>
  <!-- Улыбка -->
  <path d="M40 60 Q50 68 60 60" stroke="#5c4033" stroke-width="3" fill="none" stroke-linecap="round"/>
  <!-- Шоколадные крошки -->
  <circle cx="42" cy="38" r="3" fill="#5c4033"/>
  <circle cx="58" cy="36" r="2.5" fill="#5c4033"/>
  <circle cx="45" cy="65" r="2.5" fill="#5c4033"/>
  <circle cx="56" cy="67" r="2" fill="#5c4033"/>
  <!-- Ножки в сапогах -->
  <rect x="38" y="75" width="8" height="12" rx="2" fill="#4169e1"/>
  <rect x="54" y="75" width="8" height="12" rx="2" fill="#4169e1"/>
</svg>
