<svg xmlns="http://www.w3.org/2000/svg" viewBox="0 0 100 100">
  <!-- Цифра 3 -->
  <g transform="translate(10, 20)">
    <!-- Тело цифры 3 -->
    <path d="M10 10 Q25 5 30 15 Q35 25 25 35 Q35 45 30 55 Q25 65 10 60" 
          stroke="white" stroke-width="12" fill="none" stroke-linecap="round"/>
    <path d="M10 10 Q25 5 30 15 Q35 25 25 35 Q35 45 30 55 Q25 65 10 60" 
          stroke="#e0e0e0" stroke-width="10" fill="none" stroke-linecap="round"/>
    <!-- Шляпа-котелок -->
    <ellipse cx="20" cy="8" rx="12" ry="4" fill="#222"/>
    <rect x="12" y="-8" width="16" height="16" rx="2" fill="#222"/>
    <rect x="8" y="4" width="24" height="4" rx="1" fill="#222"/>
    <!-- Глаз -->
    <circle cx="22" cy="25" r="5" fill="white"/>
    <circle cx="23" cy="26" r="2.5" fill="#222"/>
    <!-- Зубы -->
    <rect x="15" y="42" width="4" height="6" rx="1" fill="white"/>
    <rect x="20" y="42" width="4" height="6" rx="1" fill="white"/>
    <rect x="25" y="42" width="4" height="6" rx="1" fill="white"/>
    <!-- Ножки -->
    <rect x="12" y="58" width="6" height="12" rx="2" fill="#888"/>
    <rect x="22" y="58" width="6" height="12" rx="2" fill="#888"/>
  </g>
  <!-- Цифра 7 -->
  <g transform="translate(50, 20)">
    <!-- Тело цифры 7 -->
    <path d="M10 10 L35 10 L20 60" 
          stroke="white" stroke-width="12" fill="none" stroke-linecap="round" stroke-linejoin="round"/>
    <path d="M10 10 L35 10 L20 60" 
          stroke="#e0e0e0" stroke-width="10" fill="none" stroke-linecap="round" stroke-linejoin="round"/>
    <!-- Шляпа-котелок -->
    <ellipse cx="22" cy="8" rx="12" ry="4" fill="#222"/>
    <rect x="14" y="-8" width="16" height="16" rx="2" fill="#222"/>
    <rect x="10" y="4" width="24" height="4" rx="1" fill="#222"/>
    <!-- Глаз -->
    <circle cx="28" cy="22" r="5" fill="white"/>
    <circle cx="29" cy="23" r="2.5" fill="#222"/>
    <!-- Руки -->
    <line x1="8" y1="20" x2="2" y2="30" stroke="#888" stroke-width="4" stroke-linecap="round"/>
    <line x1="36" y1="20" x2="42" y2="28" stroke="#888" stroke-width="4" stroke-linecap="round"/>
    <!-- Ножки -->
    <rect x="16" y="58" width="6" height="12" rx="2" fill="#888"/>
  </g>
</svg>
